<mxfile host="app.diagrams.net" modified="2021-11-25T03:07:49.804Z" agent="5.0 (Macintosh; Intel Mac OS X 10_15_7) AppleWebKit/537.36 (KHTML, like Gecko) Chrome/96.0.4664.55 Safari/537.36" etag="ho3wmWZ4gvV0iew5qErs" version="15.8.6" type="github">
  <diagram id="1pY4R01_YEF_WJ4rVZ5m" name="Page-1">
    <mxGraphModel dx="1298" dy="2010" grid="1" gridSize="10" guides="1" tooltips="1" connect="1" arrows="1" fold="1" page="1" pageScale="1" pageWidth="827" pageHeight="1169" math="0" shadow="0">
      <root>
        <mxCell id="0" />
        <mxCell id="1" parent="0" />
        <mxCell id="WrL0nbeZJ3WGLAnh8dPq-1" value="&lt;span style=&quot;color: rgb(51 , 51 , 51) ; font-family: , &amp;#34;sf ui text&amp;#34; , &amp;#34;arial&amp;#34; , &amp;#34;pingfang sc&amp;#34; , &amp;#34;hiragino sans gb&amp;#34; , &amp;#34;microsoft yahei&amp;#34; , &amp;#34;wenquanyi micro hei&amp;#34; , sans-serif , &amp;#34;simhei&amp;#34; , &amp;#34;simsun&amp;#34; ; font-size: 16px ; background-color: rgb(255 , 255 , 255)&quot;&gt;loader&lt;/span&gt;" style="whiteSpace=wrap;html=1;" vertex="1" parent="1">
          <mxGeometry x="230" y="-270" width="120" height="60" as="geometry" />
        </mxCell>
        <mxCell id="WrL0nbeZJ3WGLAnh8dPq-2" value="&lt;span style=&quot;color: rgb(51 , 51 , 51) ; font-family: , &amp;#34;sf ui text&amp;#34; , &amp;#34;arial&amp;#34; , &amp;#34;pingfang sc&amp;#34; , &amp;#34;hiragino sans gb&amp;#34; , &amp;#34;microsoft yahei&amp;#34; , &amp;#34;wenquanyi micro hei&amp;#34; , sans-serif , &amp;#34;simhei&amp;#34; , &amp;#34;simsun&amp;#34; ; font-size: 16px ; background-color: rgb(255 , 255 , 255)&quot;&gt;layers&lt;/span&gt;" style="whiteSpace=wrap;html=1;" vertex="1" parent="1">
          <mxGeometry x="230" y="-190" width="120" height="60" as="geometry" />
        </mxCell>
        <mxCell id="WrL0nbeZJ3WGLAnh8dPq-3" value="&lt;span style=&quot;color: rgb(51 , 51 , 51) ; font-family: , &amp;#34;sf ui text&amp;#34; , &amp;#34;arial&amp;#34; , &amp;#34;pingfang sc&amp;#34; , &amp;#34;hiragino sans gb&amp;#34; , &amp;#34;microsoft yahei&amp;#34; , &amp;#34;wenquanyi micro hei&amp;#34; , sans-serif , &amp;#34;simhei&amp;#34; , &amp;#34;simsun&amp;#34; ; font-size: 16px ; background-color: rgb(255 , 255 , 255)&quot;&gt;ICD&lt;/span&gt;" style="whiteSpace=wrap;html=1;strokeColor=#FFFFFF;" vertex="1" parent="1">
          <mxGeometry x="230" y="-110" width="120" height="60" as="geometry" />
        </mxCell>
        <mxCell id="WrL0nbeZJ3WGLAnh8dPq-6" value="" style="edgeStyle=orthogonalEdgeStyle;rounded=0;orthogonalLoop=1;jettySize=auto;html=1;fontColor=#000000;" edge="1" parent="1" source="WrL0nbeZJ3WGLAnh8dPq-4" target="WrL0nbeZJ3WGLAnh8dPq-5">
          <mxGeometry relative="1" as="geometry" />
        </mxCell>
        <mxCell id="WrL0nbeZJ3WGLAnh8dPq-4" value="&lt;pre style=&quot;font-family: &amp;quot;jetbrains mono&amp;quot;, monospace; font-size: 9.8pt;&quot;&gt;&lt;span style=&quot;&quot;&gt;VkApplicationInfo&lt;/span&gt;&lt;/pre&gt;" style="whiteSpace=wrap;html=1;fillColor=#FFFFFF;fontColor=#000000;labelBackgroundColor=default;" vertex="1" parent="1">
          <mxGeometry x="120" y="-10" width="160" height="60" as="geometry" />
        </mxCell>
        <mxCell id="WrL0nbeZJ3WGLAnh8dPq-5" value="&lt;pre style=&quot;font-family: &amp;quot;jetbrains mono&amp;quot;, monospace; font-size: 9.8pt;&quot;&gt;&lt;span style=&quot;&quot;&gt;VkInstanceCreateInfo&lt;/span&gt;&lt;/pre&gt;" style="whiteSpace=wrap;html=1;fontColor=#000000;fillColor=#FFFFFF;labelBackgroundColor=#FFFFFF;" vertex="1" parent="1">
          <mxGeometry x="380" y="-10" width="180" height="60" as="geometry" />
        </mxCell>
      </root>
    </mxGraphModel>
  </diagram>
</mxfile>
